<svg width="135" height="24" viewBox="0 0 135 24" fill="none" xmlns="http://www.w3.org/2000/svg">
<path d="M9.2836 23.5827C7.20674 23.5827 5.62833 22.9804 4.54837 21.7758C3.42686 20.5505 2.86611 18.9098 2.86611 16.8537C2.86611 14.5692 3.50994 12.2223 4.79759 9.81315C4.15376 9.5847 3.55147 9.30432 2.99072 8.97202C2.45074 8.63973 1.96268 8.24512 1.52654 7.78822C0.508879 6.74979 4.93038e-05 5.60752 4.93038e-05 4.3614C4.93038e-05 3.11529 0.560801 2.17032 1.6823 1.52649C2.61689 0.965741 3.74878 0.685366 5.07796 0.685366C7.38327 0.685366 9.41859 1.43303 11.1839 2.92837C14.1331 0.976126 17.1653 3.14953e-06 20.2806 3.14953e-06C23.1882 3.14953e-06 24.642 0.789208 24.642 2.36762C24.642 3.03221 24.3616 3.7695 23.8008 4.57947C24.32 5.43098 24.5796 6.51095 24.5796 7.81937C24.5796 9.60547 24.0812 11.5162 23.0843 13.5515C21.6097 16.4799 19.7613 18.8267 17.5391 20.592C15.0261 22.5858 12.2743 23.5827 9.2836 23.5827ZM9.8132 9.68854C10.3116 9.68854 10.7893 9.66777 11.2462 9.62623C11.7239 9.5847 12.1912 9.52239 12.6481 9.43932C14.1227 9.14856 15.5453 8.70203 16.916 8.09974C18.2868 7.49746 19.5952 6.71863 20.8413 5.76328C21.0282 5.6179 21.2048 5.47252 21.3709 5.32714C21.5371 5.16099 21.6928 5.00523 21.8382 4.85985C21.1736 3.94603 20.3325 3.48912 19.3148 3.48912C18.7748 3.48912 18.1933 3.6345 17.5703 3.92526C17.5287 3.94603 17.4664 3.95641 17.3833 3.95641C17.238 3.95641 17.1653 3.89411 17.1653 3.7695C17.1653 3.60335 17.2795 3.46835 17.508 3.36451C18.5671 2.94914 19.5121 2.74145 20.3429 2.74145C21.319 2.74145 22.1601 3.01144 22.8662 3.55143C23.157 3.01144 23.3024 2.513 23.3024 2.05609C23.3024 1.1215 22.5755 0.654212 21.1217 0.654212C18.3802 0.654212 15.5349 1.88994 12.5858 4.3614C13.0012 4.88062 13.3646 5.43098 13.6762 6.0125C13.78 6.17865 13.7385 6.27211 13.5515 6.29288H13.4581C13.2919 6.29288 13.1777 6.23057 13.1154 6.10596L12.0562 4.79754C11.2878 5.50367 10.5609 6.26173 9.8755 7.0717C9.21091 7.86091 8.59824 8.70203 8.03749 9.59508C8.63977 9.65739 9.23168 9.68854 9.8132 9.68854ZM5.23373 9.00318C6.58368 6.80171 8.33863 4.93254 10.4986 3.39566C8.58785 1.9834 6.66676 1.27727 4.73528 1.27727C3.73839 1.27727 2.90765 1.51611 2.24305 1.99379C1.49539 2.513 1.12155 3.26067 1.12155 4.23679C1.12155 6.50056 2.49228 8.08936 5.23373 9.00318ZM9.90666 22.9597C12.2327 22.9597 14.5277 21.9524 16.7914 19.9378C17.7468 19.0863 18.6191 18.1413 19.4083 17.1029C20.2182 16.0645 20.9348 14.9222 21.5578 13.6761C22.4301 11.9315 22.8662 10.2078 22.8662 8.50473C22.8662 7.57015 22.7312 6.76017 22.4613 6.07481C20.9244 7.50784 18.9202 8.62934 16.4488 9.43932C14.1434 10.1662 11.8589 10.5297 9.59513 10.5297C9.24206 10.5297 8.889 10.5193 8.53593 10.4985C8.20363 10.4777 7.87134 10.4466 7.53904 10.4051C6.08524 12.9181 5.35834 15.2857 5.35834 17.5079C5.35834 19.1279 5.70102 20.4051 6.38638 21.3397C7.15482 22.4197 8.32825 22.9597 9.90666 22.9597ZM22.5954 21.5889L23.6234 19.7821C24.0595 19.3667 25.2745 18.0271 27.2683 15.7633H25.3991L26.1468 15.3272H27.6421C28.2444 14.6626 28.7844 14.0707 29.2621 13.5515C29.7397 13.0115 30.1447 12.565 30.477 12.2119C30.0201 12.2119 29.4594 12.2327 28.7948 12.2742C28.1302 12.3158 27.3617 12.3781 26.4895 12.4611C26.2818 12.6065 26.0326 12.7623 25.7418 12.9284C25.721 12.9284 25.7003 12.9388 25.6795 12.9596C25.6587 12.9596 25.6276 12.9596 25.586 12.9596C25.503 12.9596 25.4095 12.9284 25.3057 12.8661L27.2371 10.7166L33.1562 10.7477L31.9101 11.9315C31.7854 12.0354 31.4531 12.3781 30.9132 12.9596C30.3732 13.5203 29.6151 14.3095 28.639 15.3272H31.2247L30.477 15.7633H28.234C28.0679 15.9503 27.8913 16.1372 27.7044 16.3241C27.5383 16.4902 27.3721 16.6564 27.206 16.8225C26.9983 17.0302 26.6764 17.3833 26.2402 17.8817C25.8249 18.3594 25.2849 18.9929 24.6203 19.7821C24.9111 19.7821 25.4718 19.8132 26.3025 19.8755C27.1541 19.9378 27.7771 19.969 28.1717 19.969C29.1063 19.969 29.6878 19.8548 29.9163 19.6263L30.4147 19.1279L30.8197 19.4394L28.8882 21.5578L22.5954 21.5889ZM39.6177 21.6512C39.1608 21.6512 38.787 21.5162 38.4962 21.2462C38.0808 20.8932 37.8732 20.3013 37.8732 19.4705C37.8732 18.9306 37.9666 18.3179 38.1535 17.6325C37.4474 18.8163 36.7101 19.7821 35.9417 20.5297C35.1525 21.2566 34.4463 21.6201 33.8233 21.6201C33.2833 21.6201 32.8575 21.3812 32.546 20.9036C32.2137 20.4467 32.0476 19.8132 32.0476 19.0032C32.0476 17.0302 32.9302 14.9949 34.6956 12.8973C34.9863 12.5442 35.3186 12.2223 35.6925 11.9315C36.0663 11.6408 36.4713 11.3812 36.9074 11.1527C37.8005 10.6958 38.6624 10.4674 39.4931 10.4674C40.5108 10.4674 41.3207 10.7997 41.923 11.4643C42.0684 11.6096 42.1411 11.7758 42.1411 11.9627C42.1411 12.3158 41.9542 12.4508 41.5803 12.3677C41.3727 11.62 40.8846 11.2462 40.1162 11.2462C39.2439 11.2462 38.2158 11.8589 37.032 13.0842C36.6167 13.5411 36.2221 14.0188 35.8482 14.5172C35.4744 14.9949 35.1213 15.5037 34.789 16.0437C33.896 17.5391 33.4494 18.754 33.4494 19.6886C33.4494 20.3947 33.7194 20.7478 34.2594 20.7478C34.8617 20.7478 35.5575 20.2909 36.3467 19.3771C36.7828 18.8786 37.2293 18.266 37.6862 17.5391C38.1431 16.8122 38.6208 15.971 39.1193 15.0157C39.327 14.6211 39.5139 14.2992 39.68 14.0499C39.8462 13.8007 39.9812 13.6138 40.085 13.4892C40.4173 13.1569 40.8119 13.0011 41.2688 13.0219L41.8919 13.1154C42.1619 13.1777 42.3903 13.188 42.5772 13.1465C42.3903 13.3334 42.1619 13.6346 41.8919 14.0499C41.6426 14.4445 41.3519 14.9638 41.0196 15.6076C40.6665 16.2929 40.3758 16.916 40.1473 17.4768C39.9189 18.0375 39.7631 18.5359 39.68 18.9721C39.6385 19.1798 39.6073 19.3771 39.5866 19.564C39.5658 19.7301 39.5554 19.8859 39.5554 20.0313C39.5554 20.5713 39.7008 20.8413 39.9915 20.8413C40.4069 20.8413 40.9781 20.3844 41.705 19.4705L41.8296 19.3148L42.2657 19.5951L42.1411 19.7821C41.2896 21.0282 40.4485 21.6512 39.6177 21.6512ZM42.5896 21.807C43.005 20.7893 43.5242 19.5328 44.1473 18.0375C44.7703 16.5422 45.5284 14.8184 46.4214 12.8661C46.6084 12.4508 46.7849 12.1081 46.951 11.8381C47.1172 11.5681 47.273 11.3604 47.4183 11.215C47.7091 10.9243 48.0829 10.7789 48.5398 10.7789C48.5814 10.7789 48.6541 10.7789 48.7579 10.7789C48.8618 10.7789 49.0071 10.7997 49.194 10.8412C49.4848 10.862 49.7029 10.862 49.8483 10.8412C49.0798 11.2981 47.9272 13.3127 46.3903 16.8848C46.6395 16.5318 46.9718 16.1476 47.3872 15.7322C47.8233 15.2961 48.3322 14.8184 48.9137 14.2992C49.2875 13.9461 49.7029 13.6138 50.1598 13.3023C50.6167 12.97 51.1151 12.6584 51.6551 12.3677C52.8805 11.6823 53.7839 11.3396 54.3654 11.3396C54.5108 11.3396 54.6146 11.35 54.6769 11.3708C54.3447 11.9523 54.0331 12.5131 53.7424 13.053C53.4724 13.593 53.2128 14.1019 52.9635 14.5795C51.759 16.9056 51.084 18.5152 50.9386 19.4082C50.9178 19.5536 50.8971 19.6886 50.8763 19.8132C50.8763 19.9378 50.8763 20.0521 50.8763 20.1559C50.8763 20.6959 51.0736 20.9659 51.4682 20.9659C52.112 20.9659 52.8805 20.3117 53.7735 19.0032L54.2097 19.3148C53.1505 20.9139 52.0809 21.7135 51.0009 21.7135C49.6925 21.7135 49.0383 21.0386 49.0383 19.6886C49.0383 18.5879 49.7133 16.9575 51.0632 14.7976C51.2709 14.4653 51.3747 14.1849 51.3747 13.9565C51.3747 13.7073 51.2605 13.5826 51.0321 13.5826C50.8036 13.5826 50.5025 13.7073 50.1286 13.9565C49.7756 14.1849 49.3498 14.5276 48.8514 14.9845C48.0622 15.7114 47.3249 16.5837 46.6395 17.6014C45.9542 18.5983 45.3311 19.7405 44.7703 21.0282C44.6457 21.3397 44.3238 21.5266 43.8046 21.5889C43.14 21.6512 42.735 21.7239 42.5896 21.807ZM62.681 23.9254C60.625 23.9254 59.0673 23.3023 58.0081 22.0562C57.0943 20.997 56.6374 19.5536 56.6374 17.726C56.6374 16.5006 56.8347 15.2545 57.2293 13.9876C57.6239 12.7 58.195 11.4123 58.9427 10.1247C57.7174 9.70931 56.6685 9.03433 55.7963 8.09974C54.9032 7.12362 54.4567 6.05404 54.4567 4.891C54.4567 3.54104 55.0694 2.52338 56.2947 1.83802C57.2708 1.29804 58.4131 1.02805 59.7215 1.02805C62.0061 1.02805 63.9998 1.76533 65.7029 3.2399C68.7974 1.30842 71.8815 0.342684 74.9553 0.342684C77.7798 0.342684 79.1921 1.09035 79.1921 2.58569C79.1921 4.03949 78.0394 5.60752 75.7341 7.28977C72.4942 9.65739 68.4339 10.8412 63.5533 10.8412C63.221 10.8412 62.8887 10.8308 62.5564 10.81C62.2449 10.7893 61.9438 10.7581 61.653 10.7166C59.9292 13.4788 59.0673 16.0333 59.0673 18.3802C59.0673 19.7301 59.3581 20.8205 59.9396 21.6512C60.6873 22.7312 61.8191 23.2712 63.3352 23.2712C66.0975 23.2712 68.8285 21.6512 71.5285 18.4113C72.8992 16.7499 73.5845 15.2961 73.5845 14.0499C73.5845 12.9077 72.9926 12.3365 71.8088 12.3365C70.5004 12.3365 68.8597 13.053 66.8867 14.4861C65.1421 15.7737 63.8545 17.0718 63.0237 18.3802C62.9614 18.484 62.8887 18.5359 62.8057 18.5359C62.6603 18.5359 62.5876 18.4321 62.5876 18.2244C62.5876 18.1413 62.598 18.0894 62.6187 18.0687C63.2626 16.6356 64.4983 15.2234 66.3259 13.8319C68.1951 12.4196 69.8773 11.7135 71.3727 11.7135C72.3696 11.7135 73.1276 12.025 73.6468 12.6481C74.1245 13.2503 74.3634 13.9772 74.3634 14.8288C74.3634 15.5349 74.2284 16.2618 73.9584 17.0095C73.6884 17.7571 73.2522 18.4944 72.65 19.2213C71.5077 20.6751 70.0227 21.8174 68.1951 22.6481C66.3259 23.4996 64.4879 23.9254 62.681 23.9254ZM63.6156 10.0624C64.6748 10.0624 65.7444 9.96892 66.8244 9.782C69.7943 9.22125 72.598 7.98552 75.2356 6.07481C77.001 4.80793 77.8836 3.53066 77.8836 2.24301C77.8836 1.3915 77.1775 0.96574 75.7652 0.96574C73.0238 0.96574 70.1162 2.20147 67.0424 4.67293C67.2294 4.94292 67.4059 5.21291 67.572 5.4829C67.7382 5.7529 67.894 6.03327 68.0393 6.32403C68.1224 6.46941 68.0809 6.56287 67.9147 6.60441H67.8213C67.6551 6.60441 67.5409 6.5421 67.4786 6.41749C67.3747 6.27211 67.2397 6.09558 67.0736 5.88789C66.9074 5.65944 66.7101 5.41021 66.4817 5.14022C64.7994 6.59402 63.356 8.20359 62.1514 9.96891C62.6499 10.0312 63.1379 10.0624 63.6156 10.0624ZM59.4411 9.3147C60.8742 7.11324 62.7226 5.24407 64.9864 3.70719C63.2003 2.29493 61.3207 1.5888 59.3477 1.5888C58.3716 1.5888 57.5304 1.82764 56.8243 2.30531C55.9936 2.88683 55.5782 3.72796 55.5782 4.82869C55.5782 6.86401 56.8658 8.35935 59.4411 9.3147ZM75.4766 21.807C75.8712 20.8101 76.3904 19.564 77.0342 18.0687C77.6988 16.5733 78.4465 14.8703 79.2772 12.9596C79.4434 12.5442 79.5992 12.2119 79.7445 11.9627C79.9107 11.7135 80.0561 11.5162 80.1807 11.3708C80.4507 11.0593 80.8141 10.9347 81.271 10.997L81.9252 11.0904C82.0706 11.1112 82.1952 11.132 82.2991 11.1527C82.4237 11.1527 82.5275 11.1423 82.6106 11.1216C82.1952 11.3293 81.7072 11.9212 81.1464 12.8973C80.6064 13.8526 80.0041 15.1611 79.3395 16.8225C79.568 16.5318 79.8588 16.1476 80.2118 15.6699C80.5649 15.1714 81.0114 14.6003 81.5514 13.9565C82.1537 13.2503 82.7767 12.5961 83.4206 11.9938C84.0644 11.3916 84.6874 11.0904 85.2897 11.0904C85.7674 11.0904 86.1101 11.2462 86.3178 11.5577C86.5255 11.8692 86.6293 12.2223 86.6293 12.6169C86.6293 13.0946 86.4424 13.5203 86.0686 13.8942C85.6947 14.268 85.3313 14.4549 84.9782 14.4549C84.8328 14.4549 84.6771 14.4238 84.5109 14.3615C84.3655 14.2992 84.2928 14.2057 84.2928 14.0811C84.2928 13.9772 84.3136 13.8838 84.3552 13.8007C84.3967 13.6969 84.4175 13.5826 84.4175 13.458C84.4175 13.1465 84.2721 12.9907 83.9813 12.9907C83.8775 12.9907 83.7321 13.0219 83.5452 13.0842C83.379 13.1257 83.1506 13.2919 82.8598 13.5826C82.2783 14.1226 81.6449 14.7768 80.9595 15.5453C80.2949 16.2929 79.6615 17.1341 79.0592 18.0687C78.4776 19.0032 78 20.0313 77.6261 21.1528C77.5223 21.4643 77.2108 21.6305 76.6916 21.6512C75.9854 21.6928 75.5804 21.7447 75.4766 21.807ZM88.2468 21.7135C87.4368 21.7135 86.7411 21.4539 86.1596 20.9347C85.8481 20.644 85.6196 20.3117 85.4742 19.9378C85.3496 19.5432 85.2873 19.0967 85.2873 18.5983C85.2873 16.6875 86.0765 14.7872 87.6549 12.8973C88.9841 11.2981 90.3652 10.4985 91.7982 10.4985C92.2759 10.4985 92.6809 10.6231 93.0132 10.8723C93.3663 11.1631 93.5428 11.5369 93.5428 11.9938C93.5428 13.1361 92.7848 14.2784 91.2686 15.4207C90.791 15.7737 90.1575 16.0853 89.3683 16.3552C88.496 16.646 87.8626 16.7914 87.468 16.7914C87.1772 17.4975 87.0319 18.2452 87.0319 19.0344C87.0319 20.3844 87.5303 21.0593 88.5272 21.0593C89.8356 21.0593 91.061 20.2078 92.2032 18.5048L92.3278 18.3179L92.8574 18.5359L92.764 18.7229C92.2448 19.7613 91.5906 20.5193 90.8014 20.997C90.0121 21.4747 89.1606 21.7135 88.2468 21.7135ZM87.6549 16.2618C88.008 16.2618 88.496 16.1476 89.1191 15.9191C89.4722 15.7737 89.8045 15.618 90.116 15.4518C90.4483 15.2857 90.739 15.0988 90.9883 14.8911C92.1305 13.9357 92.7017 12.9284 92.7017 11.8692C92.7017 11.4123 92.5355 11.1839 92.2032 11.1839C91.6217 11.1839 90.739 11.9004 89.5552 13.3334C88.953 14.0603 88.3195 15.0364 87.6549 16.2618ZM101.102 21.6512C100.645 21.6512 100.271 21.5162 99.9805 21.2462C99.5651 20.8932 99.3574 20.3013 99.3574 19.4705C99.3574 18.9306 99.4509 18.3179 99.6378 17.6325C98.9317 18.8163 98.1944 19.7821 97.426 20.5297C96.6368 21.2566 95.9306 21.6201 95.3076 21.6201C94.7676 21.6201 94.3418 21.3812 94.0303 20.9036C93.698 20.4467 93.5319 19.8132 93.5319 19.0032C93.5319 17.0302 94.4145 14.9949 96.1798 12.8973C96.4706 12.5442 96.8029 12.2223 97.1767 11.9315C97.5506 11.6408 97.9556 11.3812 98.3917 11.1527C99.2847 10.6958 100.147 10.4674 100.977 10.4674C101.995 10.4674 102.805 10.7997 103.407 11.4643C103.553 11.6096 103.625 11.7758 103.625 11.9627C103.625 12.3158 103.438 12.4508 103.065 12.3677C102.857 11.62 102.369 11.2462 101.6 11.2462C100.728 11.2462 99.7001 11.8589 98.5163 13.0842C98.1009 13.5411 97.7063 14.0188 97.3325 14.5172C96.9587 14.9949 96.6056 15.5037 96.2733 16.0437C95.3803 17.5391 94.9337 18.754 94.9337 19.6886C94.9337 20.3947 95.2037 20.7478 95.7437 20.7478C96.346 20.7478 97.0417 20.2909 97.8309 19.3771C98.2671 18.8786 98.7136 18.266 99.1705 17.5391C99.6274 16.8122 100.105 15.971 100.604 15.0157C100.811 14.6211 100.998 14.2992 101.164 14.0499C101.33 13.8007 101.465 13.6138 101.569 13.4892C101.902 13.1569 102.296 13.0011 102.753 13.0219L103.376 13.1154C103.646 13.1777 103.875 13.188 104.062 13.1465C103.875 13.3334 103.646 13.6346 103.376 14.0499C103.127 14.4445 102.836 14.9638 102.504 15.6076C102.151 16.2929 101.86 16.916 101.632 17.4768C101.403 18.0375 101.247 18.5359 101.164 18.9721C101.123 19.1798 101.092 19.3771 101.071 19.564C101.05 19.7301 101.04 19.8859 101.04 20.0313C101.04 20.5713 101.185 20.8413 101.476 20.8413C101.891 20.8413 102.462 20.3844 103.189 19.4705L103.314 19.3148L103.75 19.5951L103.625 19.7821C102.774 21.0282 101.933 21.6512 101.102 21.6512ZM107.501 21.5889C106.151 21.5889 105.476 20.8516 105.476 19.3771C105.476 19.0863 105.497 18.7852 105.538 18.4736C105.6 18.1621 105.694 17.8506 105.818 17.5391C106.919 14.6315 107.854 12.2638 108.622 10.4362H106.597L106.971 9.75084H108.903L109.65 7.57015C109.92 6.80171 110.149 6.3448 110.336 6.19942C110.481 6.09558 110.813 6.04366 111.333 6.04366L112.672 6.07481C112.257 6.42787 111.945 6.85363 111.738 7.35208L110.709 9.75084H113.077L112.703 10.4362H110.429C110.284 10.7685 110.138 11.1008 109.993 11.4331C109.868 11.7654 109.723 12.1081 109.557 12.4611C109.121 13.4165 108.747 14.3199 108.435 15.1714C108.061 16.1476 107.76 16.9887 107.532 17.6948C107.324 18.401 107.2 18.9617 107.158 19.3771C107.075 20.3947 107.345 20.9036 107.968 20.9036C108.55 20.9036 109.256 20.2805 110.086 19.0344L110.46 19.4705C109.463 20.8828 108.477 21.5889 107.501 21.5889ZM116.527 9.53277C115.821 9.53277 115.468 9.19009 115.468 8.50473C115.468 7.81937 115.8 7.47669 116.465 7.47669C117.171 7.47669 117.524 7.81937 117.524 8.50473C117.524 9.19009 117.192 9.53277 116.527 9.53277ZM112.29 21.5889C111.688 21.5889 111.387 21.2878 111.387 20.6855C111.387 20.3117 111.512 19.8028 111.761 19.159C112.301 17.8298 112.81 16.6045 113.287 15.483C113.765 14.3615 114.212 13.3438 114.627 12.43C114.689 12.3261 114.72 12.2119 114.72 12.0873C114.72 11.7965 114.585 11.485 114.315 11.1527L116.029 11.1216C116.61 11.1216 116.901 11.267 116.901 11.5577C116.901 11.6408 116.88 11.7342 116.839 11.8381C116.797 11.9212 116.745 12.0458 116.683 12.2119L113.817 18.8475C113.526 19.5328 113.381 20.1144 113.381 20.592C113.381 21.0905 113.537 21.4228 113.848 21.5889H112.29ZM119.327 21.807C117.936 21.807 117.24 20.9451 117.24 19.2213C117.24 18.2452 117.458 17.2171 117.894 16.1372C118.226 15.3272 118.559 14.538 118.891 13.7696C119.244 13.0011 119.587 12.2638 119.919 11.5577C120.147 11.1216 120.552 10.9035 121.134 10.9035H123.034C122.66 11.1735 122.307 11.5266 121.975 11.9627C121.643 12.3988 121.331 12.9181 121.041 13.5203C119.691 16.2618 119.016 18.2244 119.016 19.4082C119.016 20.322 119.379 20.779 120.106 20.779C121.352 20.779 122.66 19.0655 124.031 15.6387C123.761 15.078 123.626 14.4134 123.626 13.645C123.626 13.2711 123.678 12.8973 123.782 12.5234C124.01 11.755 124.353 11.1735 124.81 10.7789C125.225 10.4051 125.61 10.2181 125.963 10.2181C126.337 10.2181 126.523 10.3843 126.523 10.7166L126.368 11.2773C125.911 12.6896 125.475 13.9357 125.059 15.0157C124.665 16.0749 124.28 16.9679 123.907 17.6948C122.474 20.4363 120.947 21.807 119.327 21.807ZM128.861 21.7135C128.051 21.7135 127.355 21.4539 126.774 20.9347C126.462 20.644 126.234 20.3117 126.089 19.9378C125.964 19.5432 125.902 19.0967 125.902 18.5983C125.902 16.6875 126.691 14.7872 128.269 12.8973C129.598 11.2981 130.98 10.4985 132.413 10.4985C132.89 10.4985 133.295 10.6231 133.628 10.8723C133.981 11.1631 134.157 11.5369 134.157 11.9938C134.157 13.1361 133.399 14.2784 131.883 15.4207C131.405 15.7737 130.772 16.0853 129.983 16.3552C129.11 16.646 128.477 16.7914 128.082 16.7914C127.792 17.4975 127.646 18.2452 127.646 19.0344C127.646 20.3844 128.145 21.0593 129.142 21.0593C130.45 21.0593 131.675 20.2078 132.818 18.5048L132.942 18.3179L133.472 18.5359L133.378 18.7229C132.859 19.7613 132.205 20.5193 131.416 20.997C130.626 21.4747 129.775 21.7135 128.861 21.7135ZM128.269 16.2618C128.622 16.2618 129.11 16.1476 129.733 15.9191C130.086 15.7737 130.419 15.618 130.73 15.4518C131.063 15.2857 131.353 15.0988 131.603 14.8911C132.745 13.9357 133.316 12.9284 133.316 11.8692C133.316 11.4123 133.15 11.1839 132.818 11.1839C132.236 11.1839 131.353 11.9004 130.17 13.3334C129.567 14.0603 128.934 15.0364 128.269 16.2618Z" fill="#FFEFDC"/>
</svg>
