<svg width="24" height="24" viewBox="0 0 24 24" fill="none" xmlns="http://www.w3.org/2000/svg">
<path d="M3 9.36842C3 7.68095 3 6.83811 3.52432 6.31379C4.04863 5.78947 4.89147 5.78947 6.57895 5.78947H17.3158C19.0033 5.78947 19.8461 5.78947 20.3704 6.31379C20.8947 6.83811 20.8947 7.68095 20.8947 9.36842C20.8947 9.78984 20.8947 10.001 20.7641 10.1325C20.6326 10.2632 20.4205 10.2632 20 10.2632H3.89474C3.47332 10.2632 3.26216 10.2632 3.13063 10.1325C3 10.001 3 9.78895 3 9.36842Z" fill="#570000"/>
<path fill-rule="evenodd" clip-rule="evenodd" d="M3 17.4211C3 19.1085 3 19.9514 3.52432 20.4757C4.04863 21 4.89147 21 6.57895 21H17.3158C19.0033 21 19.8461 21 20.3704 20.4757C20.8947 19.9514 20.8947 19.1085 20.8947 17.4211V12.9474C20.8947 12.5259 20.8947 12.3148 20.7641 12.1833C20.6326 12.0526 20.4205 12.0526 20 12.0526H3.89474C3.47332 12.0526 3.26216 12.0526 3.13063 12.1833C3 12.3148 3 12.5268 3 12.9474V17.4211ZM7.47368 14.7368C7.47368 14.3154 7.47368 14.1043 7.60432 13.9727C7.73584 13.8421 7.9479 13.8421 8.36842 13.8421H10.1579C10.5793 13.8421 10.7905 13.8421 10.922 13.9727C11.0526 14.1043 11.0526 14.3154 11.0526 14.7368C11.0526 15.1583 11.0526 15.3694 10.922 15.5009C10.7905 15.6316 10.5784 15.6316 10.1579 15.6316H8.36842C7.947 15.6316 7.73584 15.6316 7.60432 15.5009C7.47368 15.3694 7.47368 15.1574 7.47368 14.7368ZM7.60432 17.5517C7.47368 17.6832 7.47368 17.8953 7.47368 18.3158C7.47368 18.7363 7.47368 18.9484 7.60432 19.0799C7.73584 19.2105 7.9479 19.2105 8.36842 19.2105H10.1579C10.5793 19.2105 10.7905 19.2105 10.922 19.0799C11.0526 18.9484 11.0526 18.7363 11.0526 18.3158C11.0526 17.8953 11.0526 17.6832 10.922 17.5517C10.7905 17.4211 10.5784 17.4211 10.1579 17.4211H8.36842C7.947 17.4211 7.73584 17.4211 7.60432 17.5517ZM12.8421 14.7368C12.8421 14.3154 12.8421 14.1043 12.9727 13.9727C13.1043 13.8421 13.3163 13.8421 13.7368 13.8421H15.5263C15.9477 13.8421 16.1589 13.8421 16.2904 13.9727C16.4211 14.1043 16.4211 14.3154 16.4211 14.7368C16.4211 15.1583 16.4211 15.3694 16.2904 15.5009C16.1589 15.6316 15.9468 15.6316 15.5263 15.6316H13.7368C13.3154 15.6316 13.1043 15.6316 12.9727 15.5009C12.8421 15.3694 12.8421 15.1574 12.8421 14.7368ZM12.9727 17.5517C12.8421 17.6832 12.8421 17.8953 12.8421 18.3158C12.8421 18.7363 12.8421 18.9484 12.9727 19.0799C13.1043 19.2105 13.3154 19.2105 13.7368 19.2105H15.5263C15.9477 19.2105 16.1589 19.2105 16.2904 19.0799C16.4211 18.9484 16.4211 18.7363 16.4211 18.3158C16.4211 17.8953 16.4211 17.6832 16.2904 17.5517C16.1589 17.4211 15.9468 17.4211 15.5263 17.4211H13.7368C13.3154 17.4211 13.1043 17.4211 12.9727 17.5517Z" fill="#570000"/>
<path d="M7 5C7 4.44772 7.44772 4 8 4C8.55228 4 9 4.44772 9 5V7C9 7.55228 8.55228 8 8 8C7.44772 8 7 7.55228 7 7V5Z" fill="#570000"/>
<path d="M15 5C15 4.44772 15.4477 4 16 4C16.5523 4 17 4.44772 17 5V7C17 7.55228 16.5523 8 16 8C15.4477 8 15 7.55228 15 7V5Z" fill="#570000"/>
</svg>
