<svg width="24" height="24" viewBox="0 0 24 24" fill="none" xmlns="http://www.w3.org/2000/svg">
<path fill-rule="evenodd" clip-rule="evenodd" d="M4.6021 2.96526L4.58654 2.96681L3.81188 3.04089C3.2732 3.09235 2.76795 3.32326 2.37843 3.69602C1.98891 4.06878 1.73807 4.56142 1.66677 5.0937L1.6201 5.44561L1.61699 5.46721C1.43966 6.77607 1.24988 8.18988 1.24988 9.64845C1.24988 11.107 1.43966 12.5193 1.61699 13.8312L1.6201 13.8513L1.66677 14.2047C1.7384 14.7367 1.98938 15.229 2.37887 15.6015C2.76836 15.9739 3.27343 16.2046 3.81188 16.256L3.88654 16.2622C3.8461 15.7405 3.82536 15.208 3.82432 14.6647C3.82432 13.0749 4.02966 11.5469 4.20388 10.2581L4.25832 9.85527C4.38812 8.89099 4.84317 7.99718 5.54934 7.32228C6.25551 6.64739 7.17119 6.22963 8.14721 6.13708L8.90943 6.06299L8.94677 6.0599C10.4821 5.91173 12.2181 5.74349 14.0085 5.74349C15.1485 5.75026 16.2877 5.80484 17.423 5.9071L17.3623 5.45795V5.44561L17.3141 5.09215C17.2425 4.56016 16.9915 4.06787 16.602 3.69542C16.2125 3.32297 15.7074 3.09228 15.169 3.04089L14.3959 2.96681H14.3803C12.8294 2.81401 11.1837 2.65503 9.49121 2.65503C7.79877 2.65503 6.15143 2.81555 4.6021 2.96526ZM9.09766 7.98151C10.6563 7.8318 12.313 7.67128 14.0085 7.67128C15.7041 7.67128 17.3623 7.8318 18.921 7.98151L19.6879 8.0556C20.2266 8.10705 20.7318 8.33797 21.1213 8.71072C21.5108 9.08348 21.7617 9.57612 21.833 10.1084L21.8797 10.4649C22.0585 11.7815 22.2499 13.203 22.2499 14.6632C22.2499 16.1233 22.0585 17.5448 21.8812 18.8614L21.833 19.2194C21.7614 19.7514 21.5104 20.2437 21.1209 20.6162C20.7314 20.9886 20.2263 21.2193 19.6879 21.2707L18.921 21.3448C17.3623 21.4945 15.7041 21.655 14.0085 21.655C12.313 21.655 10.6563 21.4945 9.09766 21.3448L8.33077 21.2707C7.79209 21.2193 7.28684 20.9883 6.89732 20.6156C6.5078 20.2428 6.25696 19.7502 6.18566 19.2179L6.13743 18.8598C5.9601 17.5448 5.76877 16.1233 5.76877 14.6632C5.76877 13.203 5.9601 11.7815 6.13743 10.4649L6.18566 10.1069C6.25729 9.57486 6.50827 9.08258 6.89776 8.71012C7.28725 8.33767 7.79232 8.10698 8.33077 8.0556L9.09766 7.98151ZM12.5712 14.9533C14.329 16.1927 15.8348 17.8751 16.9517 19.5868C15.9779 19.6671 15.001 19.7257 14.0085 19.7257C12.4157 19.7257 10.8632 19.576 9.30143 19.4247L8.51277 19.3491C8.41264 19.3387 8.31889 19.2954 8.24645 19.226C8.174 19.1567 8.12702 19.0652 8.11299 18.9663L8.06632 18.6221C7.93721 17.6559 7.80966 16.7082 7.74899 15.7575C8.06521 15.4905 8.39323 15.2377 8.7321 14.9996C9.85832 14.2063 11.3983 14.126 12.5712 14.9533ZM16.9314 14.2433C18.1417 14.2433 18.823 13.5688 18.823 12.368C18.823 11.1672 18.1417 10.4912 16.9314 10.4912C15.7212 10.4912 15.0414 11.1672 15.0414 12.368C15.0414 13.5688 15.7212 14.2433 16.9314 14.2433Z" fill="#570000"/>
</svg>
