<svg width="51" height="51" viewBox="0 0 51 51" fill="none" xmlns="http://www.w3.org/2000/svg">
<path d="M25.208 15.1262V47.8971M2.52051 17.6471C2.52051 16.9785 2.78609 16.3373 3.25884 15.8646C3.73159 15.3918 4.37277 15.1262 5.04134 15.1262H45.3747C46.0432 15.1262 46.6844 15.3918 47.1572 15.8646C47.6299 16.3373 47.8955 16.9785 47.8955 17.6471V22.6887C47.8955 23.3573 47.6299 23.9985 47.1572 24.4712C46.6844 24.944 46.0432 25.2096 45.3747 25.2096H5.04134C4.37277 25.2096 3.73159 24.944 3.25884 24.4712C2.78609 23.9985 2.52051 23.3573 2.52051 22.6887V17.6471Z" stroke="url(#paint0_linear_220_670)" stroke-width="5.04167" stroke-linecap="round" stroke-linejoin="round"/>
<path d="M42.8532 25.2095V42.8553C42.8532 44.1924 42.322 45.4748 41.3765 46.4203C40.431 47.3658 39.1487 47.897 37.8115 47.897H12.6032C11.2661 47.897 9.98369 47.3658 9.03819 46.4203C8.0927 45.4748 7.56152 44.1924 7.56152 42.8553V25.2095M13.8636 15.1261C12.1922 15.1261 10.5892 14.4622 9.40736 13.2803C8.22549 12.0984 7.56152 10.4955 7.56152 8.82406C7.56152 7.15264 8.22549 5.54968 9.40736 4.36781C10.5892 3.18594 12.1922 2.52198 13.8636 2.52198C16.2954 2.47961 18.6785 3.65953 20.702 5.90786C22.7255 8.15619 24.2955 11.3686 25.2074 15.1261C26.1192 11.3686 27.6892 8.15619 29.7128 5.90786C31.7363 3.65953 34.1193 2.47961 36.5511 2.52198C38.2225 2.52198 39.8255 3.18594 41.0074 4.36781C42.1892 5.54968 42.8532 7.15264 42.8532 8.82406C42.8532 10.4955 42.1892 12.0984 41.0074 13.2803C39.8255 14.4622 38.2225 15.1261 36.5511 15.1261" stroke="url(#paint1_linear_220_670)" stroke-width="5.04167" stroke-linecap="round" stroke-linejoin="round"/>
<defs>
<linearGradient id="paint0_linear_220_670" x1="2.52051" y1="31.5116" x2="47.8955" y2="31.5116" gradientUnits="userSpaceOnUse">
<stop stop-color="#9D6729"/>
<stop offset="0.490385" stop-color="#D6A369"/>
<stop offset="1" stop-color="#9D6729"/>
</linearGradient>
<linearGradient id="paint1_linear_220_670" x1="7.56152" y1="25.2089" x2="42.8532" y2="25.2089" gradientUnits="userSpaceOnUse">
<stop stop-color="#9D6729"/>
<stop offset="0.490385" stop-color="#D6A369"/>
<stop offset="1" stop-color="#9D6729"/>
</linearGradient>
</defs>
</svg>
