<svg width="24" height="24" viewBox="0 0 24 24" fill="none" xmlns="http://www.w3.org/2000/svg">
<path d="M9.59455 4.00003C8.04818 3.99206 6.54273 5.44298 7.23 7.24467H4.63636C4.20237 7.24467 3.78616 7.41265 3.47928 7.71166C3.1724 8.01067 3 8.41622 3 8.83909V10.4335C3 10.6449 3.0862 10.8477 3.23964 10.9972C3.39308 11.1467 3.60119 11.2307 3.81818 11.2307H11.1818V8.83909H12.8182V11.2307H20.1818C20.3988 11.2307 20.6069 11.1467 20.7604 10.9972C20.9138 10.8477 21 10.6449 21 10.4335V8.83909C21 8.41622 20.8276 8.01067 20.5207 7.71166C20.2138 7.41265 19.7976 7.24467 19.3636 7.24467H16.77C17.7273 4.6378 14.1273 2.79625 12.4664 5.04438L12 5.65025L11.5336 5.02843C11.0182 4.31892 10.3064 4.008 9.59455 4.00003ZM9.54545 5.65025C10.2736 5.65025 10.6418 6.51124 10.1264 7.01348C9.61091 7.51572 8.72727 7.15698 8.72727 6.44746C8.72727 6.23603 8.81347 6.03326 8.96691 5.88375C9.12035 5.73425 9.32846 5.65025 9.54545 5.65025ZM14.4545 5.65025C15.1827 5.65025 15.5509 6.51124 15.0355 7.01348C14.52 7.51572 13.6364 7.15698 13.6364 6.44746C13.6364 6.23603 13.7226 6.03326 13.876 5.88375C14.0294 5.73425 14.2375 5.65025 14.4545 5.65025ZM3.81818 12.0279V18.4056C3.81818 18.8284 3.99058 19.234 4.29746 19.533C4.60434 19.832 5.02055 20 5.45455 20H18.5455C18.9794 20 19.3957 19.832 19.7025 19.533C20.0094 19.234 20.1818 18.8284 20.1818 18.4056V12.0279H12.8182V18.4056H11.1818V12.0279H3.81818Z" fill="#570000"/>
</svg>
