<svg width="13" height="13" viewBox="0 0 13 13" fill="none" xmlns="http://www.w3.org/2000/svg">
<path d="M9.89109 2.54952C9.41501 2.06878 8.848 1.6876 8.22312 1.4282C7.59824 1.1688 6.92798 1.03636 6.2514 1.0386C3.41649 1.0386 1.10599 3.34911 1.10599 6.18402C1.10599 7.09264 1.34483 7.9753 1.79135 8.75413L1.06445 11.4229L3.79033 10.7064C4.54319 11.1166 5.38951 11.3346 6.2514 11.3346C9.08631 11.3346 11.3968 9.02412 11.3968 6.18921C11.3968 4.81329 10.862 3.52045 9.89109 2.54952ZM6.2514 10.4623C5.48297 10.4623 4.7301 10.2547 4.0707 9.86524L3.91494 9.77178L2.29499 10.1975L2.72594 8.61913L2.6221 8.45817C2.19507 7.77647 1.96837 6.98842 1.96789 6.18402C1.96789 3.82678 3.88898 1.90569 6.24621 1.90569C7.38848 1.90569 8.46325 2.35221 9.26804 3.16219C9.66659 3.5588 9.98243 4.0306 10.1972 4.55022C10.412 5.06984 10.5215 5.62694 10.5193 6.18921C10.5297 8.54644 8.60863 10.4623 6.2514 10.4623ZM8.59825 7.26398C8.46845 7.20167 7.83501 6.89015 7.72078 6.84342C7.60136 6.80188 7.51829 6.78111 7.43002 6.90572C7.34175 7.03553 7.09772 7.32629 7.02503 7.40936C6.95234 7.49763 6.87446 7.50801 6.74466 7.44051C6.61485 7.37821 6.19948 7.23802 5.71142 6.80188C5.3272 6.4592 5.07279 6.03864 4.9949 5.90883C4.92221 5.77903 4.98452 5.71153 5.05202 5.64403C5.10913 5.58692 5.18182 5.49346 5.24413 5.42077C5.30643 5.34808 5.33239 5.29097 5.37393 5.20789C5.41547 5.11963 5.3947 5.04694 5.36355 4.98463C5.33239 4.92232 5.07279 4.28888 4.96894 4.02928C4.8651 3.78005 4.75607 3.81121 4.67818 3.80601H4.42896C4.34069 3.80601 4.2057 3.83717 4.08628 3.96697C3.97205 4.09677 3.63976 4.4083 3.63976 5.04174C3.63976 5.67519 4.10186 6.28786 4.16416 6.37093C4.22647 6.4592 5.07279 7.75723 6.36044 8.31279C6.66677 8.44779 6.90561 8.52567 7.09253 8.58279C7.39887 8.68144 7.67924 8.66586 7.9025 8.63471C8.15173 8.59836 8.66575 8.32318 8.76959 8.02203C8.87863 7.72089 8.87863 7.46647 8.84228 7.40936C8.80594 7.35225 8.72805 7.32629 8.59825 7.26398Z" fill="#FFEFDC"/>
</svg>
