<svg width="24" height="24" viewBox="0 0 24 24" fill="none" xmlns="http://www.w3.org/2000/svg">
<path d="M15.9545 5C16.1836 5 16.4033 5.09219 16.5652 5.25628C16.7272 5.42038 16.8182 5.64294 16.8182 5.875V9.55L21.3203 6.35625C21.3851 6.31027 21.461 6.28319 21.5399 6.27794C21.6188 6.27269 21.6976 6.28949 21.7677 6.3265C21.8378 6.3635 21.8965 6.4193 21.9375 6.48781C21.9785 6.55632 22.0001 6.6349 22 6.715V17.285C22.0001 17.3651 21.9785 17.4437 21.9375 17.5122C21.8965 17.5807 21.8378 17.6365 21.7677 17.6735C21.6976 17.7105 21.6188 17.7273 21.5399 17.7221C21.461 17.7168 21.3851 17.6897 21.3203 17.6438L16.8182 14.45V18.125C16.8182 18.3571 16.7272 18.5796 16.5652 18.7437C16.4033 18.9078 16.1836 19 15.9545 19H3.86364C3.63459 19 3.41492 18.9078 3.25295 18.7437C3.09099 18.5796 3 18.3571 3 18.125V5.875C3 5.64294 3.09099 5.42038 3.25295 5.25628C3.41492 5.09219 3.63459 5 3.86364 5H15.9545ZM8.52727 9.22538C8.44764 9.22536 8.37044 9.25322 8.30874 9.30424C8.24705 9.35527 8.20465 9.42632 8.18873 9.50537L8.18182 9.5745V14.4237C8.18181 14.4804 8.19539 14.5363 8.22139 14.5865C8.24739 14.6366 8.28503 14.6797 8.33107 14.7119C8.37712 14.7441 8.43019 14.7644 8.48573 14.7713C8.54127 14.7781 8.59761 14.7711 8.64991 14.751L8.71295 14.7195L12.4741 12.2949C12.5181 12.2664 12.5552 12.2283 12.5826 12.1832C12.61 12.1382 12.6269 12.0874 12.6322 12.0348C12.6374 11.9822 12.6308 11.929 12.6128 11.8793C12.5949 11.8297 12.5661 11.7848 12.5285 11.748L12.4741 11.7042L8.71295 9.27875C8.65723 9.24375 8.59283 9.22467 8.52727 9.22538Z" fill="#570000"/>
</svg>
