<svg width="24" height="24" viewBox="0 0 24 24" fill="none" xmlns="http://www.w3.org/2000/svg">
<path d="M12 3C16.9673 3 21 7.0327 21 12C21 16.9673 16.9673 21 12 21C7.0327 21 3 16.9673 3 12C3 7.0327 7.0327 3 12 3ZM11.9896 16.8818L11.9864 16.8836H11.9927L11.9896 16.8818ZM11.9896 16.8818C19.8486 12.3524 16.1276 8.71219 14.3456 8.28539C13.1517 7.99964 12.3735 8.74608 11.9896 9.27033C11.6057 8.74608 10.8273 7.99964 9.63356 8.28539C7.85156 8.71205 4.13034 12.3524 11.9896 16.8818Z" fill="#570000"/>
</svg>
