<svg width="24" height="24" viewBox="0 0 24 24" fill="none" xmlns="http://www.w3.org/2000/svg">
<path d="M17.4211 22L16.8842 21.554C15.0947 19.8592 13.8421 18.7887 13.8421 17.4507C13.8421 16.3803 14.7368 15.4883 15.8105 15.4883C16.4368 15.4883 17.0632 15.7559 17.4211 16.2019C17.7789 15.7559 18.4053 15.4883 19.0316 15.4883C20.1053 15.4883 21 16.2911 21 17.4507C21 18.7887 19.7474 19.8592 17.9579 21.554L17.4211 22ZM5.78947 20.8404C5.31488 20.8404 4.85972 20.6524 4.52412 20.3178C4.18853 19.9833 4 19.5295 4 19.0563V4.78404C4 3.7939 4.79632 3 5.78947 3H6.68421V9.24413L8.92105 7.9061L11.1579 9.24413V3H16.5263C17.0009 3 17.4561 3.18796 17.7917 3.52253C18.1273 3.8571 18.3158 4.31088 18.3158 4.78404V12.8836L17.4211 12.8122C16.4789 12.813 15.5536 13.0607 14.7378 13.5305C13.922 14.0003 13.2445 14.6757 12.7731 15.489C12.3018 16.3023 12.0533 17.2248 12.0525 18.1641C12.0516 19.1033 12.2985 20.0263 12.7684 20.8404H5.78947Z" fill="#570000"/>
</svg>
