<svg width="13" height="13" viewBox="0 0 13 13" fill="none" xmlns="http://www.w3.org/2000/svg">
<path d="M4.04953 1.03857H8.41093C10.0724 1.03857 11.4224 2.38853 11.4224 4.05002V8.41141C11.4224 9.2101 11.1051 9.97607 10.5403 10.5408C9.97558 11.1056 9.20961 11.4229 8.41093 11.4229H4.04953C2.38804 11.4229 1.03809 10.0729 1.03809 8.41141V4.05002C1.03809 3.25133 1.35536 2.48536 1.92012 1.92061C2.48487 1.35585 3.25084 1.03857 4.04953 1.03857ZM3.94568 2.077C3.44995 2.077 2.97452 2.27393 2.62398 2.62447C2.27344 2.97501 2.07651 3.45044 2.07651 3.94617V8.51526C2.07651 9.54849 2.91245 10.3844 3.94568 10.3844H8.51477C9.0105 10.3844 9.48594 10.1875 9.83647 9.83696C10.187 9.48642 10.3839 9.01099 10.3839 8.51526V3.94617C10.3839 2.91294 9.54801 2.077 8.51477 2.077H3.94568ZM8.9561 2.85582C9.12823 2.85582 9.29331 2.9242 9.41503 3.04592C9.53674 3.16763 9.60512 3.33271 9.60512 3.50484C9.60512 3.67697 9.53674 3.84205 9.41503 3.96377C9.29331 4.08548 9.12823 4.15386 8.9561 4.15386C8.78397 4.15386 8.61889 4.08548 8.49718 3.96377C8.37546 3.84205 8.30708 3.67697 8.30708 3.50484C8.30708 3.33271 8.37546 3.16763 8.49718 3.04592C8.61889 2.9242 8.78397 2.85582 8.9561 2.85582ZM6.23023 3.63464C6.91875 3.63464 7.57907 3.90816 8.06593 4.39502C8.55278 4.88187 8.8263 5.54219 8.8263 6.23072C8.8263 6.91924 8.55278 7.57956 8.06593 8.06641C7.57907 8.55327 6.91875 8.82679 6.23023 8.82679C5.54171 8.82679 4.88139 8.55327 4.39453 8.06641C3.90767 7.57956 3.63416 6.91924 3.63416 6.23072C3.63416 5.54219 3.90767 4.88187 4.39453 4.39502C4.88139 3.90816 5.54171 3.63464 6.23023 3.63464ZM6.23023 4.67307C5.81711 4.67307 5.42092 4.83718 5.12881 5.1293C4.83669 5.42141 4.67258 5.8176 4.67258 6.23072C4.67258 6.64383 4.83669 7.04002 5.12881 7.33213C5.42092 7.62425 5.81711 7.78836 6.23023 7.78836C6.64334 7.78836 7.03953 7.62425 7.33165 7.33213C7.62376 7.04002 7.78787 6.64383 7.78787 6.23072C7.78787 5.8176 7.62376 5.42141 7.33165 5.1293C7.03953 4.83718 6.64334 4.67307 6.23023 4.67307Z" fill="#FFEFDC"/>
</svg>
