<svg width="24" height="24" viewBox="0 0 24 24" fill="none" xmlns="http://www.w3.org/2000/svg">
<path d="M21 3C21.2652 3 21.5196 3.10536 21.7071 3.29289C21.8946 3.48043 22 3.73478 22 4V18C22 18.2652 21.8946 18.5196 21.7071 18.7071C21.5196 18.8946 21.2652 19 21 19H6.455L2 22.5V4C2 3.73478 2.10536 3.48043 2.29289 3.29289C2.48043 3.10536 2.73478 3 3 3H21ZM10.515 7.412C8.728 8.187 7.5 9.755 7.5 11.505C7.5 12.5 7.777 13.114 8.292 13.661C8.616 14.005 9.129 14.25 9.666 14.25C9.89581 14.25 10.1234 14.2047 10.3357 14.1168C10.548 14.0288 10.7409 13.8999 10.9034 13.7374C11.0659 13.5749 11.1948 13.382 11.2828 13.1697C11.3707 12.9574 11.416 12.7298 11.416 12.5C11.4138 12.06 11.2468 11.6369 10.9481 11.3139C10.6493 10.9909 10.2405 10.7915 9.802 10.755C9.64251 10.7391 9.48169 10.7425 9.323 10.765V10.673C9.329 10.233 9.423 8.933 10.962 8.1L10.515 7.412ZM15.515 7.412C13.728 8.187 12.5 9.755 12.5 11.505C12.5 12.5 12.777 13.114 13.292 13.661C13.616 14.005 14.129 14.25 14.666 14.25C15.1301 14.25 15.5752 14.0656 15.9034 13.7374C16.2316 13.4092 16.416 12.9641 16.416 12.5C16.4138 12.06 16.2468 11.6369 15.9481 11.3139C15.6493 10.9909 15.2405 10.7915 14.802 10.755C14.6425 10.7391 14.4817 10.7425 14.323 10.765V10.673C14.329 10.233 14.423 8.933 15.962 8.1L15.515 7.412Z" fill="#570000"/>
</svg>
