<svg width="24" height="24" viewBox="0 0 24 24" fill="none" xmlns="http://www.w3.org/2000/svg">
<path fill-rule="evenodd" clip-rule="evenodd" d="M20.1 4H4.9C3.855 4 3 4.85 3 5.88889V19.1111C3 20.15 3.855 21 4.9 21H20.1C21.145 21 22 20.15 22 19.1111V5.88889C22 4.85 21.145 4 20.1 4ZM9.65 17.2222H6.8C6.2775 17.2222 5.85 16.7972 5.85 16.2778C5.85 15.7583 6.2775 15.3333 6.8 15.3333H9.65C10.1725 15.3333 10.6 15.7583 10.6 16.2778C10.6 16.7972 10.1725 17.2222 9.65 17.2222ZM9.65 13.4444H6.8C6.2775 13.4444 5.85 13.0194 5.85 12.5C5.85 11.9806 6.2775 11.5556 6.8 11.5556H9.65C10.1725 11.5556 10.6 11.9806 10.6 12.5C10.6 13.0194 10.1725 13.4444 9.65 13.4444ZM9.65 9.66667H6.8C6.2775 9.66667 5.85 9.24167 5.85 8.72222C5.85 8.20278 6.2775 7.77778 6.8 7.77778H9.65C10.1725 7.77778 10.6 8.20278 10.6 8.72222C10.6 9.24167 10.1725 9.66667 9.65 9.66667ZM18.865 11.6689L15.8535 14.6628C15.483 15.0311 14.875 15.0311 14.5045 14.6628L13.165 13.3217C13.077 13.2342 13.0073 13.1304 12.9597 13.0162C12.9121 12.9019 12.8876 12.7795 12.8876 12.6558C12.8876 12.5322 12.9121 12.4097 12.9597 12.2955C13.0073 12.1812 13.077 12.0774 13.165 11.99C13.253 11.9026 13.3574 11.8332 13.4723 11.7859C13.5872 11.7386 13.7104 11.7142 13.8347 11.7142C13.9591 11.7142 14.0823 11.7386 14.1972 11.7859C14.3121 11.8332 14.4165 11.9026 14.5045 11.99L15.179 12.6606L17.5255 10.3278C17.6134 10.2402 17.7178 10.1708 17.8327 10.1234C17.9476 10.076 18.0708 10.0516 18.1953 10.0516C18.3197 10.0516 18.4429 10.076 18.5578 10.1234C18.6727 10.1708 18.7771 10.2402 18.865 10.3278L18.8745 10.3372C19.2355 10.7056 19.2355 11.31 18.865 11.6689Z" fill="#570000"/>
</svg>
