<svg width="13" height="13" viewBox="0 0 13 13" fill="none" xmlns="http://www.w3.org/2000/svg">
<g clip-path="url(#clip0_2_753)">
<path d="M11.2496 2.49805H8.09326V3.42527H11.2621L11.2496 2.49805ZM10.5835 8.87678C10.344 9.04437 10.0613 9.12938 9.77417 9.12009C9.58412 9.14102 9.39202 9.12028 9.20991 9.05918C9.0278 8.99808 8.85959 8.89792 8.71582 8.76499C8.45056 8.44627 8.31225 8.03156 8.32983 7.60761H12.4512C12.4806 7.16607 12.4449 6.72238 12.3453 6.29241C12.2485 5.8835 12.0795 5.49755 11.8473 5.15476C11.6128 4.82288 11.3107 4.55094 10.9633 4.35906C10.5761 4.15825 10.1494 4.05685 9.71813 4.06314C9.31245 4.06036 8.91032 4.14308 8.53527 4.30645C8.19185 4.45919 7.88073 4.68275 7.62011 4.96406C7.36013 5.25084 7.15881 5.59109 7.02868 5.96361C6.88904 6.36577 6.81944 6.79129 6.82324 7.21963C6.81656 7.65406 6.88404 8.08621 7.02246 8.49537C7.14041 8.86566 7.3266 9.20761 7.57031 9.5015C7.82301 9.78963 8.13358 10.0143 8.47924 10.1591C8.86467 10.3142 9.27461 10.3901 9.68701 10.3827C10.2656 10.4017 10.8369 10.2417 11.3306 9.92236C11.8296 9.5485 12.1886 9.00166 12.3453 8.377H10.9695C10.8958 8.58358 10.7603 8.75907 10.5835 8.87678ZM8.44812 6.16746C8.49657 6.00351 8.577 5.8521 8.68423 5.72298C8.79145 5.59386 8.92309 5.4899 9.07067 5.4178C9.26626 5.3253 9.47901 5.28036 9.69323 5.28628C9.84801 5.27232 10.0038 5.29388 10.15 5.3495C10.2961 5.40512 10.4291 5.49348 10.5399 5.6085C10.7517 5.88184 10.8875 6.21195 10.9321 6.56202H8.34851C8.35858 6.42839 8.38153 6.29619 8.41699 6.16746H8.44812ZM5.15478 5.85182C5.47164 5.71245 5.74697 5.48524 5.95166 5.19422C6.14056 4.8855 6.2341 4.52246 6.21936 4.15521C6.2311 3.82042 6.16931 3.4873 6.03881 3.18196C5.92882 2.91755 5.75224 2.69009 5.52832 2.52436C5.29128 2.35132 5.02153 2.23465 4.73767 2.1824C4.40203 2.10783 4.05963 2.07254 3.71667 2.07719H0V10.3498H3.79761C4.14416 10.3497 4.4893 10.3033 4.82483 10.2117C5.14259 10.1242 5.44373 9.97961 5.71509 9.78427C5.97816 9.59267 6.19208 9.33508 6.33764 9.0346C6.49971 8.69918 6.57894 8.32596 6.56799 7.94956C6.57978 7.48315 6.45593 7.02413 6.21313 6.63436C5.95202 6.24238 5.56475 5.96421 5.12365 5.85182H5.15478ZM1.72449 3.49103H3.33691C3.48507 3.49027 3.63299 3.50347 3.77893 3.53049C3.91354 3.55082 4.04278 3.60006 4.15869 3.67516C4.27097 3.74224 4.36194 3.84292 4.42016 3.9645C4.49284 4.11008 4.52723 4.27358 4.51977 4.43797C4.53137 4.57951 4.51088 4.72194 4.46 4.85345C4.40911 4.98496 4.3293 5.10177 4.22717 5.19422C4.00437 5.35601 3.73777 5.4368 3.46765 5.42438H1.72449V3.49103ZM4.73767 8.38358C4.67321 8.51724 4.57659 8.63064 4.45752 8.71238C4.33319 8.79406 4.19621 8.85194 4.05285 8.88335C3.89354 8.92121 3.73053 8.93887 3.56726 8.93596H1.69958V6.66724H3.56726C3.88776 6.65242 4.20427 6.74695 4.46997 6.93686C4.59 7.05064 4.68299 7.19268 4.74139 7.35149C4.7998 7.51029 4.82198 7.68138 4.80615 7.85092C4.8223 8.03167 4.79887 8.21392 4.73767 8.38358Z" fill="#FFEFDC"/>
</g>
<defs>
<clipPath id="clip0_2_753">
<rect width="12.4611" height="12.4611" fill="white"/>
</clipPath>
</defs>
</svg>
